# xmcd
#
# Track frame offsets:
# 182
# 10627
# 34827
# 43820
# 69512
# 77805
# 93207
# 107735
# 123177
# 138207
#
# Disc length: 2048 seconds
#
#
# Revision: 0
# Processed by: cddbd v1.5.1PL0 Copyright (c) Steve Scherf et al.
# Submitted via: FreeRIP 2.80 
#
DISCID=7607fe0a
DTITLE=Jimmy Dean - Inspirational Songs
DYEAR=1998
DGENRE=Christian
TTITLE0=The Farmer And The Lord
TTITLE1=To A Sleeping Beauty
TTITLE2=Drinkin' From My Saucer
TTITLE3=I.O.U.
TTITLE4=The Man In The Glass
TTITLE5=Steal Away
TTITLE6=Trouble In The Amen Corner
TTITLE7=Mama Sang A Song
TTITLE8=Old Rivers
TTITLE9=The Touch Of The Master's Hand
EXTD=
EXTT0=
EXTT1=
EXTT2=
EXTT3=
EXTT4=
EXTT5=
EXTT6=
EXTT7=
EXTT8=
EXTT9=
PLAYORDER=
